<?xml version="1.0" encoding="UTF-8"?>
<!-- Generator: Adobe Illustrator 21.1.0, SVG Export Plug-In . SVG Version: 6.00 Build 0)  -->
<svg version="1.1" id="Layer_1" xmlns="http://www.w3.org/2000/svg" xmlns:xlink="http://www.w3.org/1999/xlink" x="0px" y="0px" viewBox="0 0 159.7 50" style="enable-background:new 0 0 159.7 50;" xml:space="preserve">
<style type="text/css">
	.st0{fill:#08090A;}
	.st1{opacity:0.5;}
	.st2{clip-path:url(#SVGID_2_);}
</style>
<path class="st0" d="M49.9,23.1c3.1,0.6,5.8,2,7.8,4.7c-1.9,0.5-3.8,0.9-5.5,1.4c-1.2-2.8-2.9-4.8-6-5.5c3.2-1.8,4.6-4.6,4.4-8  c-0.2-4.5-2.6-7.7-7.5-8c-2.7-0.2-5.4-0.4-8,0.3c-1.7,0.4-3.2,1.3-4.4,2.5c-3.9,3.9-7.7,7.8-11.6,11.6c-0.4,0.4-0.4,0.7,0,1.1  c1.5,1.6,3,3.2,4.5,4.9c0.2,0.2,0.8,0.9,1,1.1c0,0-0.2-0.2,0,0c-1.4-0.3-3.3-0.7-4.7-1.1c-2.8-0.8-5.7-1.6-8.5-2.7  c-3.2-1.2-6.4-2.8-9.5-4.1c-0.5-0.2-0.7-0.5-0.7-1.1V2c0-1,0.4-1.4,1.4-1.4h5.3c1.1,0,1.4,0.3,1.4,1.5v17.6c0,0.6-0.1,1.2,0.4,1.2  c0.2,0,0.3,0.1,0.6-0.2c2-2,3.9-4,5.9-6c3.7-3.8,7.4-7.7,11.1-11.4c1.8-1.8,4.1-2.5,6.5-2.6c3.8-0.1,7.5-0.1,11.2,0.2  c3.3,0.2,6.5,1.1,9.2,3.3C59.2,8,59.2,19.6,49.9,23.1C49.5,23.3,50.2,23,49.9,23.1C49.8,23.2,49.9,23,49.9,23.1"/>
<path class="st0" d="M10.7,26.7c4.6,1.7,9.1,3.1,13.8,3.8c0.2,0.1,0.5,0.2,0.7,0.4c2.8,3,5.6,6,8.3,9c1.5,1.6,3.3,2.6,5.5,2.7  c2.8,0.2,5.2,0.2,8-0.7c3.2-1,5-3.2,5.6-6.3c0.4-2.2,0.1-3.4-0.1-5.1c1.1-0.3,2.3-0.7,3.6-1.1c1.9-0.5,1.9-0.5,2.8,1.4  c3.1,6.5,0,14.5-7.1,17.1c-3.2,1.2-6.4,1.6-9.8,1.7c-2.8,0-5.6,0-8.5-0.2c-2.4-0.2-4.4-1.5-5.9-3.3C22.1,40,16.6,33.7,11.1,27.4  C11,27.2,10.8,27,10.7,26.7"/>
<path class="st0" d="M1,22.5c2,0.9,4,1.9,5.9,2.7c0.1,0.1,0.2,0.1,0.2,0.1c1.5,0.7,2.2,1.4,2.2,3.2c0,6.5-0.1,13.1-0.1,19.6  c0,1.3-0.2,1.5-1.5,1.5H2.3c-0.9,0-1.3-0.4-1.3-1.3V23V22.5z"/>
<g class="st1">
	<g>
		<defs>
			<rect id="SVGID_1_" x="72" y="-1" width="166" height="58"/>
		</defs>
		<clipPath id="SVGID_2_">
			<use xlink:href="#SVGID_1_" style="overflow:visible;"/>
		</clipPath>
		<g class="st2">
			<path class="st0" d="M74.3,0.7v5.5l5.6-5.5h1.9l-4.7,4.5l4.9,6.6h-1.9l-4-5.6l-1.8,1.7v3.9h-1.5V0.7H74.3z"/>
			<path class="st0" d="M87.2,0.7c0.2,0,0.5,0,0.8,0c0.3,0,0.5,0,0.8,0c0.3,0,0.5,0.1,0.8,0.1C89.7,1,89.9,1,90.1,1.1     C90.5,1.4,90.8,1.7,91,2c0.3,0.4,0.4,0.9,0.4,1.4C91.4,4,91.3,4.5,91,5c-0.3,0.4-0.7,0.7-1.2,1v0c0.7,0.1,1.2,0.5,1.6,0.9     c0.4,0.5,0.5,1.1,0.5,1.7c0,0.4-0.1,0.8-0.2,1.2c-0.1,0.4-0.4,0.7-0.6,1c-0.3,0.3-0.6,0.5-1.1,0.7c-0.4,0.2-0.9,0.3-1.5,0.3h-5.4     V0.7H87.2z M87.6,5.5c0.8,0,1.4-0.1,1.8-0.4c0.4-0.3,0.6-0.7,0.6-1.3c0-0.4-0.1-0.7-0.2-0.9c-0.1-0.2-0.3-0.4-0.5-0.5     C89,2.1,88.8,2.1,88.5,2C88.2,2,87.9,2,87.6,2h-2.9v3.5H87.6z M88.3,10.6c0.7,0,1.2-0.2,1.5-0.5c0.4-0.4,0.6-0.8,0.6-1.5     c0-0.4-0.1-0.7-0.2-0.9c-0.1-0.2-0.3-0.4-0.5-0.6c-0.2-0.1-0.5-0.2-0.8-0.3c-0.3-0.1-0.6-0.1-0.9-0.1h-3.4v3.8H88.3z"/>
		</g>
		<g class="st2">
			<path class="st0" d="M74.8,19.3l3.5,9.3l3.5-9.3h2v11.1h-1.4v-9.2h0L79,30.4h-1.3l-3.5-9.2h0v9.2h-1.4V19.3H74.8z"/>
			<path class="st0" d="M94,19.3v1.2h-6.2v3.5h5.8v1.2h-5.8v3.8H94v1.2h-7.7V19.3H94z"/>
			<path class="st0" d="M99.6,19.3c1.7,0,3,0.4,3.9,1.3c0.9,0.9,1.4,2.2,1.4,4c0,0.9-0.1,1.8-0.3,2.5c-0.2,0.7-0.5,1.3-1,1.8     c-0.4,0.5-1,0.9-1.7,1.1c-0.7,0.3-1.5,0.4-2.4,0.4h-3.8V19.3H99.6z M99.7,29.2c0.2,0,0.4,0,0.6,0c0.2,0,0.5-0.1,0.8-0.2     c0.3-0.1,0.6-0.2,0.8-0.4c0.3-0.2,0.5-0.4,0.7-0.8c0.2-0.3,0.4-0.7,0.5-1.2c0.1-0.5,0.2-1.1,0.2-1.7c0-0.7-0.1-1.3-0.2-1.8     c-0.1-0.5-0.3-1-0.6-1.3s-0.7-0.6-1.1-0.8c-0.5-0.2-1-0.3-1.7-0.3h-2.5v8.6H99.7z"/>
			<path class="st0" d="M108.3,19.3v11.1h-1.5V19.3H108.3z"/>
			<path class="st0" d="M115.4,19.3l4.3,11.1h-1.6l-1.2-3.3h-4.7l-1.2,3.3h-1.5l4.3-11.1H115.4z M116.4,25.8l-1.8-5.2h0l-1.9,5.2     H116.4z"/>
		</g>
		<g class="st2">
			<path class="st0" d="M78.3,39.5c-0.5-0.4-1.1-0.5-1.9-0.5c-0.3,0-0.6,0-0.9,0.1c-0.3,0.1-0.6,0.2-0.8,0.3     c-0.2,0.1-0.4,0.3-0.6,0.6S74,40.5,74,40.8c0,0.3,0.1,0.6,0.3,0.8c0.2,0.2,0.5,0.4,0.8,0.5c0.3,0.1,0.7,0.2,1.1,0.3     c0.4,0.1,0.9,0.2,1.3,0.3s0.9,0.2,1.3,0.4c0.4,0.1,0.8,0.3,1.1,0.6c0.3,0.2,0.6,0.5,0.8,0.9s0.3,0.8,0.3,1.4     c0,0.6-0.1,1.1-0.4,1.5s-0.6,0.8-1,1s-0.9,0.5-1.4,0.6c-0.5,0.1-1,0.2-1.5,0.2c-0.6,0-1.2-0.1-1.8-0.2s-1-0.4-1.5-0.7     s-0.8-0.7-1-1.2s-0.4-1.1-0.4-1.7h1.4c0,0.5,0.1,0.9,0.3,1.2c0.2,0.3,0.4,0.6,0.7,0.8c0.3,0.2,0.6,0.4,1,0.5s0.8,0.2,1.2,0.2     c0.3,0,0.7,0,1-0.1c0.3-0.1,0.6-0.2,0.9-0.3c0.3-0.1,0.5-0.4,0.7-0.6c0.2-0.3,0.2-0.6,0.2-1c0-0.4-0.1-0.7-0.3-0.9     c-0.2-0.2-0.5-0.4-0.8-0.6c-0.3-0.2-0.7-0.3-1.1-0.4c-0.4-0.1-0.9-0.2-1.3-0.3c-0.4-0.1-0.9-0.2-1.3-0.3     c-0.4-0.1-0.8-0.3-1.1-0.5c-0.3-0.2-0.6-0.5-0.8-0.8c-0.2-0.3-0.3-0.8-0.3-1.3c0-0.6,0.1-1,0.3-1.5c0.2-0.4,0.5-0.7,0.9-1     c0.4-0.3,0.8-0.5,1.3-0.6c0.5-0.1,1-0.2,1.5-0.2c0.6,0,1.1,0.1,1.6,0.2c0.5,0.1,0.9,0.3,1.3,0.6s0.7,0.7,0.9,1.1     c0.2,0.4,0.3,1,0.3,1.6h-1.4C79.1,40.4,78.8,39.8,78.3,39.5z"/>
			<path class="st0" d="M82.6,41.3c0.2-0.7,0.6-1.3,1-1.9c0.4-0.5,1-1,1.7-1.3c0.7-0.3,1.4-0.5,2.3-0.5c0.9,0,1.6,0.2,2.3,0.5     c0.7,0.3,1.2,0.8,1.7,1.3c0.4,0.5,0.8,1.2,1,1.9c0.2,0.7,0.3,1.4,0.3,2.2s-0.1,1.5-0.3,2.2c-0.2,0.7-0.6,1.3-1,1.9s-1,1-1.7,1.3     s-1.4,0.5-2.3,0.5c-0.9,0-1.6-0.2-2.3-0.5s-1.2-0.7-1.7-1.3s-0.8-1.2-1-1.9c-0.2-0.7-0.3-1.4-0.3-2.2S82.3,42,82.6,41.3z      M83.9,45.2c0.1,0.5,0.4,1,0.7,1.5c0.3,0.4,0.7,0.8,1.2,1c0.5,0.3,1.1,0.4,1.7,0.4s1.3-0.1,1.7-0.4c0.5-0.3,0.9-0.6,1.2-1     c0.3-0.4,0.5-0.9,0.7-1.5c0.1-0.5,0.2-1.1,0.2-1.7s-0.1-1.1-0.2-1.7c-0.1-0.5-0.4-1-0.7-1.5c-0.3-0.4-0.7-0.8-1.2-1     c-0.5-0.3-1.1-0.4-1.7-0.4s-1.3,0.1-1.7,0.4c-0.5,0.3-0.9,0.6-1.2,1c-0.3,0.4-0.5,0.9-0.7,1.5c-0.1,0.5-0.2,1.1-0.2,1.7     S83.8,44.6,83.9,45.2z"/>
			<path class="st0" d="M96.1,38v9.8h5.9V49h-7.3V38H96.1z"/>
			<path class="st0" d="M111,48.2c-0.8,0.7-1.8,1.1-3.2,1.1c-1.4,0-2.5-0.3-3.3-1c-0.8-0.7-1.2-1.8-1.2-3.2V38h1.5V45     c0,1,0.3,1.7,0.8,2.3c0.5,0.5,1.3,0.8,2.3,0.8c0.9,0,1.7-0.3,2.1-0.8c0.5-0.5,0.7-1.3,0.7-2.3V38h1.5V45     C112.1,46.5,111.7,47.5,111,48.2z"/>
			<path class="st0" d="M113.3,39.2V38h8.9v1.2h-3.7V49H117v-9.8H113.3z"/>
			<path class="st0" d="M124.9,38V49h-1.5V38H124.9z"/>
			<path class="st0" d="M127.1,41.3c0.2-0.7,0.6-1.3,1-1.9c0.4-0.5,1-1,1.7-1.3c0.7-0.3,1.4-0.5,2.3-0.5c0.9,0,1.7,0.2,2.3,0.5     c0.7,0.3,1.2,0.8,1.7,1.3c0.4,0.5,0.8,1.2,1,1.9c0.2,0.7,0.3,1.4,0.3,2.2s-0.1,1.5-0.3,2.2c-0.2,0.7-0.6,1.3-1,1.9     c-0.4,0.5-1,1-1.7,1.3c-0.7,0.3-1.4,0.5-2.3,0.5c-0.9,0-1.6-0.2-2.3-0.5s-1.2-0.7-1.7-1.3s-0.8-1.2-1-1.9s-0.3-1.4-0.3-2.2     S126.9,42,127.1,41.3z M128.5,45.2c0.1,0.5,0.4,1,0.7,1.5c0.3,0.4,0.7,0.8,1.2,1s1.1,0.4,1.7,0.4c0.7,0,1.3-0.1,1.7-0.4     s0.9-0.6,1.2-1c0.3-0.4,0.5-0.9,0.7-1.5s0.2-1.1,0.2-1.7s-0.1-1.1-0.2-1.7s-0.4-1-0.7-1.5c-0.3-0.4-0.7-0.8-1.2-1     s-1.1-0.4-1.7-0.4c-0.7,0-1.3,0.1-1.7,0.4s-0.9,0.6-1.2,1c-0.3,0.4-0.5,0.9-0.7,1.5c-0.1,0.5-0.2,1.1-0.2,1.7     S128.3,44.6,128.5,45.2z"/>
			<path class="st0" d="M140.7,38l5.8,9h0v-9h1.4V49h-1.6l-5.8-8.9h0V49h-1.4V38H140.7z"/>
			<path class="st0" d="M155.9,39.5c-0.5-0.4-1.1-0.5-1.9-0.5c-0.3,0-0.6,0-0.9,0.1c-0.3,0.1-0.6,0.2-0.8,0.3     c-0.2,0.1-0.4,0.3-0.6,0.6s-0.2,0.5-0.2,0.9c0,0.3,0.1,0.6,0.3,0.8c0.2,0.2,0.5,0.4,0.8,0.5c0.3,0.1,0.7,0.2,1.1,0.3     c0.4,0.1,0.9,0.2,1.3,0.3s0.9,0.2,1.3,0.4c0.4,0.1,0.8,0.3,1.1,0.6c0.3,0.2,0.6,0.5,0.8,0.9c0.2,0.4,0.3,0.8,0.3,1.4     c0,0.6-0.1,1.1-0.4,1.5s-0.6,0.8-1,1c-0.4,0.3-0.9,0.5-1.4,0.6c-0.5,0.1-1,0.2-1.5,0.2c-0.6,0-1.2-0.1-1.8-0.2     c-0.6-0.2-1-0.4-1.5-0.7s-0.8-0.7-1-1.2s-0.4-1.1-0.4-1.7h1.4c0,0.5,0.1,0.9,0.3,1.2c0.2,0.3,0.4,0.6,0.7,0.8     c0.3,0.2,0.6,0.4,1,0.5c0.4,0.1,0.8,0.2,1.2,0.2c0.3,0,0.7,0,1-0.1c0.3-0.1,0.6-0.2,0.9-0.3c0.3-0.1,0.5-0.4,0.7-0.6     c0.2-0.3,0.2-0.6,0.2-1c0-0.4-0.1-0.7-0.3-0.9c-0.2-0.2-0.5-0.4-0.8-0.6c-0.3-0.2-0.7-0.3-1.1-0.4c-0.4-0.1-0.9-0.2-1.3-0.3     c-0.4-0.1-0.9-0.2-1.3-0.3c-0.4-0.1-0.8-0.3-1.1-0.5c-0.3-0.2-0.6-0.5-0.8-0.8c-0.2-0.3-0.3-0.8-0.3-1.3c0-0.6,0.1-1,0.3-1.5     c0.2-0.4,0.5-0.7,0.9-1c0.4-0.3,0.8-0.5,1.3-0.6c0.5-0.1,1-0.2,1.5-0.2c0.6,0,1.1,0.1,1.6,0.2c0.5,0.1,0.9,0.3,1.3,0.6     s0.7,0.7,0.9,1.1s0.3,1,0.3,1.6h-1.4C156.7,40.4,156.4,39.8,155.9,39.5z"/>
		</g>
	</g>
</g>
</svg>